<svg xmlns="http://www.w3.org/2000/svg" viewBox="0 0 44.94 44.94"><defs><style>.cls-1{fill:#fff;}</style></defs><title>about</title><g id="Layer_2" data-name="Layer 2"><g id="Layer_2-2" data-name="Layer 2"><path class="cls-1" d="M22.47,0A22.47,22.47,0,1,0,44.94,22.47,22.5,22.5,0,0,0,22.47,0Zm0,40.94A18.47,18.47,0,1,1,40.94,22.47,18.49,18.49,0,0,1,22.47,40.94Z"/><path class="cls-1" d="M22.71,15.13a2.58,2.58,0,0,0-2,.84,3.61,3.61,0,0,0-.77,2.5v16A3.74,3.74,0,0,0,20.71,37a2.52,2.52,0,0,0,2,.88,2.66,2.66,0,0,0,2-.86,3.62,3.62,0,0,0,.8-2.54V18.31a3.27,3.27,0,0,0-.8-2.34A2.68,2.68,0,0,0,22.71,15.13Z"/><path class="cls-1" d="M22.77,7.05a2.88,2.88,0,0,0-2,.77,2.57,2.57,0,0,0-.85,2,2.54,2.54,0,0,0,.83,2,3,3,0,0,0,2,.72,2.83,2.83,0,0,0,1.95-.73,2.54,2.54,0,0,0,.82-2,2.49,2.49,0,0,0-.84-2A3,3,0,0,0,22.77,7.05Z"/></g></g></svg>