<svg xmlns="http://www.w3.org/2000/svg" viewBox="0 0 44.94 44.94"><defs><style>.cls-1{fill:#fff;}</style></defs><title>about-active</title><g id="Layer_2" data-name="Layer 2"><g id="Layer_2-2" data-name="Layer 2"><path class="cls-1" d="M22.47,0A22.47,22.47,0,1,0,44.94,22.47,22.5,22.5,0,0,0,22.47,0Zm3.07,34.49a3.62,3.62,0,0,1-.8,2.54,2.66,2.66,0,0,1-2,.86,2.52,2.52,0,0,1-2-.88,3.74,3.74,0,0,1-.77-2.52v-16a3.61,3.61,0,0,1,.77-2.5,2.58,2.58,0,0,1,2-.84,2.68,2.68,0,0,1,2,.84,3.27,3.27,0,0,1,.8,2.34ZM24.72,11.8a2.83,2.83,0,0,1-1.95.73,3,3,0,0,1-2-.72,2.54,2.54,0,0,1-.83-2,2.57,2.57,0,0,1,.85-2,2.88,2.88,0,0,1,2-.77,3,3,0,0,1,1.93.7,2.49,2.49,0,0,1,.84,2A2.54,2.54,0,0,1,24.72,11.8Z"/></g></g></svg>