<svg xmlns="http://www.w3.org/2000/svg" viewBox="0 0 48.02 47"><defs><style>.cls-1{fill:#fff;}</style></defs><title>home</title><g id="Layer_2" data-name="Layer 2"><g id="Layer_2-2" data-name="Layer 2"><path class="cls-1" d="M6.49,20.22V44a3,3,0,0,0,3,3H38.22a3,3,0,0,0,3-3V20.22L23.87,6.53ZM38.22,44,9.49,44V21.68L23.87,10.35,38.25,21.68Z"/><path class="cls-1" d="M48,19.59a2.14,2.14,0,0,0-.8-1.43l-7.59-6V2.52A2.49,2.49,0,0,0,37.16,0H34.69a2.49,2.49,0,0,0-2.46,2.52V6.3l-7-5.58A2.1,2.1,0,0,0,23.89.27h-.25a2.08,2.08,0,0,0-1.28.45L.81,17.78a2.13,2.13,0,0,0,1.07,3.79,2.06,2.06,0,0,0,1.57-.45L23.77,5l20.8,16.47a2.15,2.15,0,0,0,1.32.45A2.13,2.13,0,0,0,48,19.59Z"/></g></g></svg>