<svg xmlns="http://www.w3.org/2000/svg" viewBox="0 0 478.09 530.7"><defs><style>.cls-1{fill:#fff;}</style></defs><title>Badge</title><g id="Layer_2" data-name="Layer 2"><g id="Layer_1-2" data-name="Layer 1"><path class="cls-1" d="M442.09,65.61a159.61,159.61,0,0,1-14,63.62c-1.21,2.67-1.11,7.19.38,9.62,9.78,16,19,32.5,30.49,47.25,23.34,30,25,60.88,6.4,93.17-5.63,9.76-8.21,20.48-12.46,30.62-9.87,23.51-24,44.66-39.57,64.69-17.17,22.11-35.17,43.58-53.05,65.13C340.18,464,315.11,483,291.37,503.41c-10,8.57-20.42,16.6-30.7,24.81-4.45,3.55-8.62,3-13.54,0a575.94,575.94,0,0,1-65.28-46.67c-18.7-15.48-38.33-29.82-57.21-45.09C98.47,415.3,75.07,391.23,52.69,366.1c-10.36-11.63-20.06-23.82-25.35-38.49-3.5-9.71-4.3-20.37-6.76-30.49-1.2-4.91-3.3-9.62-5.22-14.32-4.19-10.26-9-20.3-12.67-30.72-4.47-12.58-3-25.44,1.64-37.57,3.2-8.37,7.79-16.32,12.58-23.95,11-17.44,22.54-34.48,33.47-51.93a10.93,10.93,0,0,0,.47-8.94C38.71,103.29,35,75.5,37.92,47A75.87,75.87,0,0,1,46,20C56.6-.13,72.46-4.75,93.18,4.72c19.62,9,33.77,24,45.51,41.54,3.48,5.19,6.09,6.73,12.26,3.79a62.36,62.36,0,0,1,20.69-5.73c29.12-2.66,58.29-6.18,87.46-6.36,24.6-.15,49.36,3,72.5,13.24,1.59.7,5.1-.63,6.46-2.14,8.89-10,16.68-21,26.28-30.17C375.76,8,389.23-.08,406.1.41c8.1.24,14.6,3.52,20,9.51,9.71,10.76,13.71,23.76,15.06,37.78C441.74,53.65,441.8,59.64,442.09,65.61ZM296.78,47.34c.8.62.24,0-.46-.31a21.61,21.61,0,0,0-3.58-.92c-36-6.93-71.92-2.38-107.86.57-3.55.29-4.35,1.85-3.33,5.4a202.68,202.68,0,0,1,5.33,22.18c3.67,21.95,6.78,44,10.47,65.94,4.54,27,9.42,54,14.2,81,4.62,26.08,1.73,51-12.08,74-4,6.68-6.87,14.79-15.71,17.43-.82.25-1.7,2.87-1.36,4a191.39,191.39,0,0,0,6.78,20.5c4.28,10.16,10.5,18.42,22.06,21.69,14.64,4.12,29.36,4.22,44.11,1.88,19.66-3.13,34.24-12.38,38.56-33.56,1.48-7.23,4-14.17-5.16-18.12a2.62,2.62,0,0,1-.87-.88c-13.3-17.74-22.79-37.49-22.43-59.74.3-19.26,3.64-38.54,6.67-57.65,4.1-25.84,9.35-51.5,13.82-77.28C289.7,91.82,293.07,70.09,296.78,47.34ZM302,297.62l2.16,1c2.65-3,5.58-5.72,7.91-8.92,9.9-13.62,23.71-22.19,38.37-29.45,13.35-6.62,27.89-8.56,42.66-8.59,7.55,0,15.74-1.38,22.53,1,15.51,5.46,30.95,12,39.26,28,.32.61,1.22.91,2,1.47.93-.81,1.95-1.31,2.41-2.13,7-12.44,13.32-25,14.07-39.77.9-17.82-5.39-33-15.38-47.22s-19.22-28.79-28.82-43.19c-6.11-9.18-10.88-18.46-2.8-29,.12-.15.11-.4.19-.58,8-17.64,10.3-36.5,10.65-55.51.35-19.22-1.93-37.92-15.86-53.16C413.51,3,407.9,1,396.77,4.78c-25.27,8.54-41.63,27.33-55.46,48.83-1,1.49.59,4.59,1,7,2-.93,4.7-1.33,5.72-2.87,6.6-9.91,16-16.66,25.74-22.82,12.59-7.93,31.65-2,36.51,11.45a69.32,69.32,0,0,1,3.65,18.62c1.2,17.75-4.48,34.2-10.81,50.38-3.12,8-4.43,8.22-12.68,5.45-11.71-3.94-21.77-1.93-30.12,7.78-9.37,10.89-14.66,23.65-18.83,37.18-11.7,38-23.8,75.84-35.55,113.81C304.09,285.41,303.28,291.59,302,297.62Zm-129.17,1.54,3.31-2.34a31.88,31.88,0,0,0-.31-5.28c-1.66-7.23-3.12-14.53-5.29-21.62-9-29.54-17.87-59.15-27.64-88.45A324.93,324.93,0,0,0,124.7,137c-8.75-17.2-20.2-21.06-38.58-15.29-4.4,1.38-7.43.29-9.07-3.75-2.55-6.28-4.8-12.69-7-19.1a96.46,96.46,0,0,1-4.81-40.27c1.9-21.6,22.52-34.12,39.55-23.88,9.92,6,19.19,12.91,25.76,22.75a58.94,58.94,0,0,1,3.12,6.1c5.64-6.29,6.06-6.88,3.61-10.61C123.35,31.75,107.08,13.18,82,4.78,70.85,1,65.73,2.61,57.9,11.28c-15.37,17-17.16,37.64-16.27,59.11a155,155,0,0,0,14.93,60.2c.84,1.77,1.08,4.77.13,6.28-12.25,19.52-24.61,39-37.27,58.23-8.56,13-14.32,26.73-14.14,42.69.18,15.49,6.87,28.63,13.76,41.81a56,56,0,0,1,2.2,5.62c4.19-6.63,6.27-10.85,9.18-14.36C41,258,55.19,252.94,71.5,250.94c20.64-2.53,40.11,1.52,58.33,9.78,15.14,6.86,28.83,16.92,38.63,31.09C170.08,294.15,171.38,296.71,172.83,299.16Zm132.84-86.55c-.1-8.72-4.31-11.6-11.41-6.57-3.95,2.79-6.26,8.18-8.73,12.72-1.9,3.49.36,5.73,3.64,7.05C297.32,229.09,305.79,222.31,305.67,212.61ZM173,212.32c-.34,9.49,8.45,16.82,16.51,13.42,1.8-.76,4.1-3.54,3.95-5.19-.55-6.1-3-11.63-8.74-14.79C177.45,201.75,173.28,204.16,173,212.32Z"/><path class="cls-1" d="M240.88,355.35c-14.24.18-27.27-2.13-38.65-10.25-12.81-9.14-13.12-22.32-.3-31.52,14.49-10.38,31.25-12.72,48.32-10a77.79,77.79,0,0,1,26.53,9c15.16,8.84,14.73,23.9,0,33.47C265.72,353.3,253.31,355.62,240.88,355.35Z"/></g></g></svg>