<svg xmlns="http://www.w3.org/2000/svg" viewBox="0 0 478.1 530.7"><g data-name="Layer 2"><g data-name="Layer 1"><path d="M442 65.6a159.6 159.6 0 01-14 63.6 12 12 0 00.5 9.7c9.7 16 19 32.4 30.5 47.2 23.3 30 25 60.9 6.4 93.2-5.7 9.7-8.3 20.4-12.5 30.6-9.9 23.5-24 44.7-39.6 64.7-17.1 22-35.1 43.6-53 65.1-20.1 24.3-45.2 43.3-69 63.7-10 8.6-20.4 16.6-30.6 24.8-4.5 3.6-8.6 3-13.6 0a576 576 0 01-65.2-46.7c-18.7-15.4-38.4-29.8-57.3-45a616.1 616.1 0 01-72-70.4 121 121 0 01-25.3-38.5c-3.5-9.7-4.3-20.4-6.7-30.5-1.2-4.9-3.3-9.6-5.2-14.3-4.2-10.3-9-20.3-12.7-30.7a53.4 53.4 0 011.6-37.6c3.2-8.4 7.8-16.3 12.6-24 11-17.4 22.6-34.4 33.5-51.9a11 11 0 00.4-9A156.4 156.4 0 0138 47 75.9 75.9 0 0146 20C56.6-.1 72.5-4.8 93.2 4.7a111 111 0 0145.5 41.6c3.5 5.2 6 6.7 12.3 3.8a62.4 62.4 0 0120.6-5.8c29.2-2.6 58.3-6.2 87.5-6.3 24.6-.2 49.4 3 72.5 13.2 1.6.7 5.1-.6 6.5-2.1 8.8-10 16.6-21 26.2-30.2C375.8 8 389.3-.1 406.1.4a27 27 0 0120 9.5 63.1 63.1 0 0115 37.8c.6 6 .7 12 1 18zM296.9 47.3c.8.7.2 0-.5-.3a21.6 21.6 0 00-3.6-.9c-36-7-71.9-2.4-107.8.6-3.6.3-4.4 1.8-3.4 5.4a202.7 202.7 0 015.4 22.2c3.6 22 6.8 44 10.4 65.9 4.6 27 9.5 54 14.2 81 4.7 26 1.8 51-12 74-4 6.7-6.9 14.8-15.7 17.4-.9.3-1.7 2.9-1.4 4a191.4 191.4 0 006.8 20.5c4.3 10.2 10.5 18.4 22 21.7 14.7 4.1 29.4 4.2 44.1 1.9 19.7-3.1 34.3-12.4 38.6-33.6 1.5-7.2 4-14.1-5.2-18a2.6 2.6 0 01-.8-1c-13.3-17.7-22.8-37.5-22.5-59.7.3-19.3 3.7-38.5 6.7-57.7 4.1-25.8 9.4-51.5 13.8-77.2 3.8-21.7 7.2-43.4 10.9-66.2zm5.2 250.3l2.2 1c2.6-3 5.5-5.7 7.9-8.9a99.7 99.7 0 0138.3-29.4 95 95 0 0142.7-8.6c7.5 0 15.7-1.4 22.5 1 15.5 5.4 31 12 39.3 28 .3.6 1.2.9 2 1.4 1-.8 2-1.3 2.4-2.1 7-12.4 13.3-25 14-39.8 1-17.8-5.3-33-15.3-47.2s-19.2-28.8-28.8-43.2c-6.1-9.2-11-18.4-2.8-29 0-.1 0-.4.2-.6 8-17.6 10.3-36.5 10.6-55.5.4-19.2-2-37.9-15.9-53.1C413.5 3 408 1 396.8 4.8 371.5 13.3 355 32 341.3 53.6c-1 1.5.6 4.6 1 7 2-1 4.7-1.3 5.7-2.9 6.6-9.9 16-16.6 25.8-22.8 12.6-8 31.6-2 36.5 11.5a69.3 69.3 0 013.6 18.6c1.2 17.7-4.4 34.2-10.8 50.4-3.1 8-4.4 8.2-12.7 5.4-11.7-4-21.7-2-30 7.8a100.4 100.4 0 00-19 37.2c-11.6 38-23.7 75.8-35.5 113.8-1.8 5.8-2.6 12-3.9 18zm-129.2 1.6l3.3-2.4a31.9 31.9 0 00-.3-5.3c-1.6-7.2-3-14.5-5.3-21.6-9-29.5-17.8-59.1-27.6-88.4a325 325 0 00-18.2-44.5c-8.8-17.2-20.2-21-38.6-15.3-4.4 1.4-7.4.3-9-3.7-2.6-6.3-4.8-12.7-7-19.1a96.5 96.5 0 01-4.9-40.3c2-21.6 22.6-34.1 39.6-23.9 10 6 19.2 13 25.8 22.8a59 59 0 013 6c5.7-6.2 6.1-6.8 3.7-10.5C123.3 31.7 107 13.2 82 4.8 70.8 1 65.7 2.6 57.9 11.3c-15.4 17-17.2 37.6-16.3 59a155 155 0 0015 60.3c.8 1.8 1 4.8 0 6.3A3176 3176 0 0119.5 195a74.8 74.8 0 00-14.1 42.7c.2 15.5 6.8 28.6 13.7 41.8a56 56 0 012.2 5.6c4.2-6.6 6.3-10.8 9.2-14.3 10.6-12.9 24.8-18 41.1-20 20.6-2.5 40.1 1.6 58.3 9.8a92.3 92.3 0 0138.7 31.1c1.6 2.3 2.9 5 4.3 7.4zm132.9-86.6c-.1-8.7-4.3-11.6-11.4-6.6-4 2.8-6.3 8.2-8.8 12.8-1.9 3.5.4 5.7 3.7 7 8.1 3.3 16.6-3.5 16.5-13.2zm-132.7-.3c-.3 9.5 8.4 16.8 16.5 13.4 1.8-.7 4.1-3.5 4-5.2-.6-6-3-11.6-8.8-14.7-7.3-4-11.4-1.6-11.7 6.5z"/><path d="M240.9 355.4a62.5 62.5 0 01-38.7-10.3c-12.8-9.1-13-22.3-.3-31.5a63.3 63.3 0 0148.3-10 77.8 77.8 0 0126.6 9c15.1 8.8 14.7 23.9 0 33.5a61.6 61.6 0 01-36 9.3z"/></g></g></svg>