<svg xmlns="http://www.w3.org/2000/svg" viewBox="0 0 612 401.54"><defs><style>.cls-1{fill:#fff;}</style></defs><title>wavyboi</title><g id="Layer_2" data-name="Layer 2"><g id="Layer_1-2" data-name="Layer 1"><path class="cls-1" d="M530,24C481-2,450,0,450,0s-31-2-80,24c-17.69,9.38-33.28,14.06-46,16.23V40a36,36,0,0,1-3.75.81A110,110,0,0,1,306,41.92a110,110,0,0,1-14.25-1.07A36,36,0,0,1,288,40v.23C275.28,38.1,259.69,33.42,242,24,193-2,162,0,162,0S131-2,82,24,0,40,0,40v361.5H611.5L612,40S579,50,530,24Z"/></g></g></svg>