<svg xmlns="http://www.w3.org/2000/svg" viewBox="0 0 506.1 558.7"><defs><style>.cls-1{fill:#fff;}</style></defs><title>white-logo</title><g id="Layer_2" data-name="Layer 2"><g id="Layer_1-2" data-name="Layer 1"><path class="cls-1" d="M203.51,239.74c1.81-.76,4.1-3.54,4-5.19-.56-6.1-3-11.63-8.74-14.79-7.27-4-11.44-1.6-11.73,6.56C186.66,235.81,195.45,243.14,203.51,239.74Z"/><path class="cls-1" d="M302.76,323a2.5,2.5,0,0,1-.86-.88c-13.3-17.74-22.79-37.49-22.44-59.74.3-19.26,3.64-38.54,6.67-57.65,4.11-25.84,9.35-51.5,13.83-77.28,3.76-21.66,7.12-43.39,10.84-66.14.79.62.23,0-.47-.31a21.61,21.61,0,0,0-3.58-.92c-36-6.93-71.92-2.38-107.86.57-3.54.29-4.35,1.85-3.32,5.4a202.64,202.64,0,0,1,5.32,22.18c3.68,21.95,6.78,44,10.47,65.94,4.55,27,9.42,54,14.2,81,4.62,26.08,1.74,51-12.08,74-4,6.68-6.87,14.79-15.71,17.43-.82.25-1.7,2.87-1.35,4a191.34,191.34,0,0,0,6.77,20.5c4.28,10.16,10.51,18.42,22.07,21.69,14.63,4.12,29.35,4.22,44.1,1.88,19.66-3.13,34.24-12.38,38.57-33.56C309.4,333.92,311.93,327,302.76,323Zm-11.94,37.05c-11.09,7.22-23.49,9.54-35.93,9.27-14.23.18-27.27-2.13-38.64-10.25-12.81-9.14-13.12-22.32-.3-31.52,14.48-10.38,31.24-12.72,48.31-10a77.79,77.79,0,0,1,26.53,9C306,335.45,305.53,350.51,290.82,360.08Z"/><path class="cls-1" d="M184.55,283.92c-9-29.54-17.87-59.15-27.64-88.45A324.93,324.93,0,0,0,138.71,151c-8.75-17.2-20.2-21.06-38.57-15.29-4.4,1.38-7.44.29-9.08-3.75-2.55-6.28-4.8-12.69-7-19.1a96.14,96.14,0,0,1-4.81-40.27c1.89-21.6,22.51-34.12,39.54-23.88,9.92,6,19.19,12.91,25.76,22.75a55.25,55.25,0,0,1,3.12,6.1c5.65-6.29,6.07-6.88,3.62-10.61C137.37,45.75,121.1,27.18,96,18.78,84.86,15,79.74,16.61,71.91,25.28c-15.36,17-17.16,37.64-16.26,59.11a154.64,154.64,0,0,0,14.93,60.2c.83,1.77,1.07,4.77.13,6.28-12.25,19.52-24.62,39-37.27,58.23-8.57,13-14.33,26.73-14.14,42.69.18,15.49,6.86,28.63,13.76,41.81a58.57,58.57,0,0,1,2.19,5.62c4.2-6.63,6.27-10.85,9.18-14.36C55.06,272,69.2,266.94,85.51,264.94c20.64-2.53,40.11,1.52,58.33,9.78,15.14,6.86,28.83,16.92,38.63,31.09,1.62,2.34,2.93,4.9,4.38,7.35l3.3-2.34a30.83,30.83,0,0,0-.31-5.28C188.19,298.31,186.72,291,184.55,283.92Z"/><path class="cls-1" d="M505.93,244.92c-1.2-18.32-8.55-36.3-21.87-53.42-8.6-11.06-15.88-23.17-23.58-36q-2.43-4-4.88-8.08a174.61,174.61,0,0,0,14.5-67.56c0-.31,0-.62,0-.94-.09-1.81-.16-3.62-.23-5.43-.15-4.25-.31-8.63-.75-13.13-1.83-19-7.91-34-18.6-45.82-8.14-9-18.23-13.78-30-14.12-.63,0-1.25,0-1.88,0-17.89,0-34.24,7.32-50,22.38a218.07,218.07,0,0,0-17.76,19.94c-2,2.45-3.94,4.81-5.88,7.1-20.5-8-43.57-11.85-70.27-11.85H273c-23.85.15-47.76,2.48-70.88,4.73-5.93.57-11.85,1.15-17.77,1.69a75.42,75.42,0,0,0-21.85,5.44C147.83,28.64,132,14.67,113,6c-8.69-4-17-6-24.75-6C76.32,0,59.57,4.77,47.65,27.52a90.2,90.2,0,0,0-9.65,32c-3.18,31.36,1.25,60.9,13.16,87.83-5,8-10.3,16-15.4,23.85-5.51,8.44-11.21,17.16-16.69,25.9-4.69,7.47-10,16.44-13.8,26.4-6.38,16.68-7,32.58-1.76,47.24,2.53,7.14,5.5,14,8.37,20.65,1.59,3.68,3.09,7.15,4.53,10.68l.93,2.25A73.75,73.75,0,0,1,21,314.43c.83,3.41,1.46,7,2.14,10.81,1.22,6.87,2.48,14,5.06,21.12,6.14,17,17.12,30.76,28.06,43.05,27,30.27,50.34,53.13,73.6,71.95,8.6,7,17.45,13.8,26,20.41,10.32,8,21,16.21,31.1,24.59a594.78,594.78,0,0,0,66.86,47.8,27.33,27.33,0,0,0,14.53,4.54,23.78,23.78,0,0,0,15.09-5.54l7.72-6.13c7.72-6.09,15.69-12.4,23.37-19,4.94-4.25,10.05-8.53,15-12.67,19.12-16,38.89-32.57,55.6-52.71l6.72-8.1c15.46-18.61,31.45-37.86,46.61-57.38,19.19-24.69,32.35-46.26,41.42-67.86,1.67-4,3.07-7.94,4.42-11.76,2.2-6.23,4.28-12.12,7.26-17.28C502.27,281.68,507.11,263.06,505.93,244.92Zm-26.51,48.35c-5.64,9.76-8.21,20.48-12.47,30.62-9.87,23.51-24,44.66-39.56,64.69-17.18,22.11-35.18,43.58-53.06,65.13C354.2,478,329.12,497,305.39,517.41c-10,8.57-20.42,16.6-30.71,24.81-4.45,3.55-8.62,3-13.54,0a575.82,575.82,0,0,1-65.27-46.67c-18.7-15.48-38.34-29.82-57.21-45.09-26.18-21.18-49.58-45.25-71.95-70.38-10.36-11.63-20.06-23.82-25.35-38.49-3.51-9.71-4.31-20.37-6.77-30.49-1.19-4.91-3.3-9.62-5.22-14.32-4.18-10.26-9-20.3-12.67-30.72-4.46-12.58-3-25.44,1.65-37.57,3.2-8.37,7.79-16.32,12.57-23.95,10.95-17.44,22.54-34.48,33.48-51.93a11,11,0,0,0,.46-8.94C52.72,117.29,49,89.51,51.93,61A75.88,75.88,0,0,1,60.05,34c10.56-20.15,26.42-24.77,47.14-15.3,19.62,9,33.77,24,45.51,41.54,3.49,5.19,6.09,6.73,12.26,3.79a62.43,62.43,0,0,1,20.69-5.73c29.12-2.66,58.29-6.18,87.46-6.36,24.6-.15,49.36,3,72.51,13.24,1.58.7,5.1-.63,6.45-2.14,8.89-10,16.69-21,26.28-30.17,11.43-10.94,24.89-19,41.76-18.48,8.1.24,14.6,3.52,20,9.51,9.7,10.76,13.71,23.76,15.06,37.78.57,6,.63,11.94.92,17.91a159.6,159.6,0,0,1-14,63.62c-1.21,2.67-1.12,7.19.37,9.62,9.78,16,19,32.5,30.49,47.25C496.36,230.12,498.06,261,479.42,293.27Z"/><path class="cls-1" d="M443.22,163.89c-6.12-9.18-10.89-18.46-2.8-29,.11-.15.1-.4.18-.58,8-17.64,10.3-36.5,10.65-55.51.35-19.22-1.93-37.92-15.85-53.16C427.53,17,421.91,15,410.78,18.78c-25.26,8.54-41.63,27.33-55.46,48.83-1,1.49.59,4.59,1,7,1.95-.93,4.69-1.33,5.72-2.87,6.59-9.91,16-16.66,25.73-22.82,12.59-7.93,31.66-2,36.51,11.45a69.32,69.32,0,0,1,3.65,18.62c1.2,17.75-4.48,34.2-10.81,50.38-3.12,8-4.43,8.22-12.68,5.45-11.71-3.94-21.76-1.93-30.12,7.78-9.37,10.89-14.65,23.65-18.82,37.18-11.71,38-23.8,75.84-35.56,113.81-1.81,5.87-2.63,12-3.91,18.08l2.17,1c2.65-3,5.57-5.72,7.9-8.92,9.91-13.62,23.72-22.19,38.37-29.45,13.36-6.62,27.89-8.56,42.66-8.59,7.56,0,15.74-1.38,22.54,1,15.5,5.45,31,12,39.25,28,.32.61,1.23.91,2,1.47.94-.81,2-1.31,2.42-2.13,7-12.44,13.31-25,14.06-39.77.91-17.82-5.39-33-15.38-47.22S452.81,178.29,443.22,163.89Z"/><path class="cls-1" d="M308.27,220c-3.95,2.79-6.26,8.18-8.73,12.72-1.9,3.49.37,5.73,3.65,7.05,8.14,3.28,16.62-3.5,16.5-13.2C319.58,217.89,315.37,215,308.27,220Z"/></g></g></svg>